<svg xmlns="http://www.w3.org/2000/svg" width="21.256" height="21.256" viewBox="0 0 21.256 21.256" fill="#073e81">
    <path d="M20.011 3.736h.623a.623.623 0 0 0 .623-.623V.623A.623.623 0 0 0 20.634 0h-2.491a.623.623 0 0 0-.623.623v.623H3.736V.623A.623.623 0 0 0 3.114 0H.623A.623.623 0 0 0 0 .623v2.491a.623.623 0 0 0 .623.623h.623V17.52H.623a.623.623 0 0 0-.623.623v2.491a.623.623 0 0 0 .623.623h2.491a.623.623 0 0 0 .623-.623v-.623H17.52v.625a.623.623 0 0 0 .623.623h2.491a.623.623 0 0 0 .623-.623v-2.493a.623.623 0 0 0-.623-.623h-.625v-.042zm-1.246-2.491h1.245v1.246h-1.245zm-17.52 0h1.246v1.246H1.245zm1.246 18.766H1.245v-1.246h1.246zm17.52 0h-1.246v-1.246h1.245zm-1.868-2.491a.623.623 0 0 0-.623.623v.625H3.736v-.623a.623.623 0 0 0-.623-.623h-.624V3.736h.623a.623.623 0 0 0 .623-.623v-.622H17.52v.623a.623.623 0 0 0 .623.623h.623V17.52zm0 0"/>
</svg>
