<svg xmlns="http://www.w3.org/2000/svg" width="42.266" height="42.266" viewBox="0 0 42.266 42.266">
    <path fill="none" d="M0 0h42.266v42.266H0z"/>
    <path fill="#2e3192" d="M31.177 3H6.522A3.533 3.533 0 0 0 3 6.522v24.655A3.533 3.533 0 0 0 6.522 34.7h24.655a3.533 3.533 0 0 0 3.523-3.523V6.522A3.533 3.533 0 0 0 31.177 3zm0 28.177H6.522V6.522h24.655zM10.044 15.328h3.522v12.327h-3.522zm7.044-5.283h3.522v17.61h-3.521zm7.044 10.567h3.522v7.044h-3.521z" transform="translate(2.283 2.283)"/>
</svg>
