<svg xmlns="http://www.w3.org/2000/svg" width="103.283" height="103.283" viewBox="0 0 103.283 103.283">
    <path fill="#1481c3" d="M9.078 38.731H0v-8.069h9.078zM3.717 54.668l3.63 7.206 8.561-4.312-3.629-7.206zm11.989-43.453L7.346 7l-3.629 7.211 8.36 4.209zm71.669 46.347l8.561 4.312 3.629-7.206L91 50.356zm12.191-43.351L95.936 7l-8.36 4.21 3.629 7.206zM86.337 34.466v.234c-.064 13.852-5.891 21.52-11.037 28.291-4.3 5.662-7.7 10.135-7.7 17.581v10.607a12.117 12.117 0 0 1-12.1 12.1h-7.71a12.117 12.117 0 0 1-12.1-12.1V80.571c0-7.446-3.4-11.919-7.7-17.581-5.153-6.77-10.981-14.438-11.044-28.29v-.231a34.7 34.7 0 0 1 69.391 0zM59.531 91.179v-7.867h-15.78v7.867a4.039 4.039 0 0 0 4.034 4.034H55.5a4.039 4.039 0 0 0 4.031-4.034zm18.738-56.585a26.628 26.628 0 0 0-53.255 0c.035 11.2 4.581 17.183 9.392 23.514 3.733 4.913 7.57 9.962 8.877 17.135H60c1.307-7.173 5.144-12.222 8.877-17.135 4.811-6.331 9.357-12.313 9.392-23.514zM53.551 18.45a14.894 14.894 0 0 0-11.567 3.678A14.609 14.609 0 0 0 37.117 33h8.069a6.445 6.445 0 0 1 2.18-4.857 6.722 6.722 0 0 1 5.3-1.671 6.587 6.587 0 0 1 5.805 5.765c.232 2.107-.781 4.124-3.387 6.741-.637.641-1.228 1.2-1.8 1.748-2.937 2.8-5.473 5.219-5.473 10.513v.2h8.069v-.2c0-1.738.336-2.16 2.972-4.674.58-.552 1.236-1.18 1.949-1.894 2.765-2.778 6.363-7.18 5.688-13.315A14.712 14.712 0 0 0 53.551 18.45zm-5.742 47.11h8.069v-8.069h-8.069zm46.4-34.9v8.069h9.078v-8.067zm0 0"/>
</svg>
