<svg xmlns="http://www.w3.org/2000/svg" width="32.283" height="32.283" viewBox="0 0 32.283 32.283">
    <path fill="#2e3192" d="M2.837 12.106H0V9.584h2.837zm-1.675 4.982L2.3 19.34l2.676-1.348-1.138-2.252zM4.909 3.505L2.3 2.189 1.162 4.442l2.613 1.316zm22.4 14.487l2.676 1.348 1.134-2.252-2.674-1.348zm3.811-13.55l-1.133-2.253-2.613 1.316 1.134 2.252zm-4.135 6.331v.072c-.02 4.331-1.841 6.728-3.449 8.844-1.345 1.77-2.407 3.168-2.407 5.5V28.5a3.787 3.787 0 0 1-3.783 3.783h-2.41a3.787 3.787 0 0 1-3.782-3.783v-3.316c0-2.327-1.063-3.726-2.407-5.5-1.608-2.116-3.43-4.513-3.449-8.844v-.072a10.845 10.845 0 0 1 21.69 0zM18.608 28.5v-2.459h-4.933V28.5a1.263 1.263 0 0 0 1.261 1.261h2.41a1.262 1.262 0 0 0 1.262-1.261zm5.857-17.687a8.323 8.323 0 0 0-16.646 0c.011 3.5 1.432 5.371 2.936 7.35a12.322 12.322 0 0 1 2.775 5.356h5.225a12.322 12.322 0 0 1 2.775-5.356c1.503-1.979 2.924-3.849 2.935-7.35zm-7.726-5.046a4.655 4.655 0 0 0-3.615 1.15 4.566 4.566 0 0 0-1.521 3.4h2.522a2.015 2.015 0 0 1 .68-1.517 2.1 2.1 0 0 1 1.655-.522 2.059 2.059 0 0 1 1.815 1.8c.072.659-.244 1.289-1.059 2.107-.2.2-.384.376-.562.546a4.106 4.106 0 0 0-1.711 3.286v.063h2.522v-.063c0-.543.105-.675.929-1.461.181-.173.386-.369.609-.592A5.1 5.1 0 0 0 20.782 9.8a4.6 4.6 0 0 0-4.043-4.033zm-1.8 14.725h2.522V17.97h-2.517zm14.5-10.908v2.522h2.837V9.584zm0 0"/>
</svg>
