<svg xmlns="http://www.w3.org/2000/svg" width="36.976" height="36.976" viewBox="0 0 36.976 36.976">
    <path fill="none" d="M0 0h36.976v36.976H0z"/>
    <path fill="#1983c4" d="M29.732 6.163H5.081A3.09 3.09 0 0 0 2 9.244v18.488a3.09 3.09 0 0 0 3.081 3.081h24.651a3.09 3.09 0 0 0 3.081-3.081V9.244a3.09 3.09 0 0 0-3.081-3.081zm0 21.569H5.081V9.244h24.651zM5.081 0h24.651v3.081H5.081zm0 33.895h24.651v3.081H5.081zm12.326-15.407a3.852 3.852 0 1 0-3.852-3.852 3.853 3.853 0 0 0 3.852 3.852zm0-5.392a1.541 1.541 0 1 1-1.541 1.541 1.545 1.545 0 0 1 1.541-1.537zm7.7 11.54c0-3.22-5.1-4.607-7.7-4.607s-7.7 1.387-7.7 4.607v1.556H25.11zm-12.615-.756a8.634 8.634 0 0 1 9.845 0z" transform="translate(1.081)"/>
</svg>
