<svg xmlns="http://www.w3.org/2000/svg" id="flooded-house" width="35.628" height="35.767" viewBox="0 0 35.628 35.767">
    <defs>
        <style>
            .cls-1{fill:#646363}
        </style>
    </defs>
    <path id="Path_161" d="M281.548 194.606h5.589a1.048 1.048 0 0 0 1.048-1.048v-5.588a1.048 1.048 0 0 0-1.048-1.048h-5.589a1.048 1.048 0 0 0-1.048 1.048v5.589a1.048 1.048 0 0 0 1.048 1.047zm1.048-5.589h3.493v3.493H282.6zm0 0" class="cls-1" transform="translate(-260.94 -173.864)"/>
    <path id="Path_162" d="M1.548 24.59a2.306 2.306 0 0 1 1.515.523 4.317 4.317 0 0 0 2.677.875 4.317 4.317 0 0 0 2.677-.875 2.306 2.306 0 0 1 1.515-.523 2.306 2.306 0 0 1 1.515.523 4.317 4.317 0 0 0 2.677.875 4.318 4.318 0 0 0 2.677-.875 2.456 2.456 0 0 1 3.029 0 4.534 4.534 0 0 0 5.354 0 2.456 2.456 0 0 1 3.029 0 4.534 4.534 0 0 0 5.354 0 2.3 2.3 0 0 1 1.514-.522 1.048 1.048 0 0 0 0-2.1 4.314 4.314 0 0 0-2.677.875 5.265 5.265 0 0 1-.466.289V12.971l1.1.858a1.048 1.048 0 1 0 1.287-1.654L18.957.221a1.048 1.048 0 0 0-1.287 0L2.3 12.175a1.048 1.048 0 0 0 1.287 1.654l1.1-.858v10.687a5.311 5.311 0 0 1-.467-.289 4.319 4.319 0 0 0-2.677-.874 1.048 1.048 0 1 0 0 2.1zm14.321-1.374l-.232.153a2.456 2.456 0 0 1-3.029 0 4.612 4.612 0 0 0-1.629-.763v-7.452h4.89zm2.445-20.84l11.526 8.965v12.318a5.266 5.266 0 0 1-.466-.289 4.535 4.535 0 0 0-5.354 0 2.456 2.456 0 0 1-3.029 0 4.319 4.319 0 0 0-2.677-.874c-.122 0-.237.005-.349.012v-8.4a1.048 1.048 0 0 0-1.048-1.048H9.931a1.048 1.048 0 0 0-1.048 1.048v8.5a4.612 4.612 0 0 0-1.629.763 5.376 5.376 0 0 1-.467.289V11.341zm0 0" class="cls-1" transform="translate(-.5)"/>
    <path id="Path_163" d="M35.08 392a4.314 4.314 0 0 0-2.677.875 2.455 2.455 0 0 1-3.028 0 4.535 4.535 0 0 0-5.354 0 2.456 2.456 0 0 1-3.029 0 4.534 4.534 0 0 0-5.354 0 2.456 2.456 0 0 1-3.029 0A4.319 4.319 0 0 0 9.931 392a4.319 4.319 0 0 0-2.677.874 2.3 2.3 0 0 1-1.515.523 2.3 2.3 0 0 1-1.515-.523A4.319 4.319 0 0 0 1.548 392a1.048 1.048 0 0 0 0 2.1 2.306 2.306 0 0 1 1.515.523 4.317 4.317 0 0 0 2.677.875 4.317 4.317 0 0 0 2.677-.875 2.306 2.306 0 0 1 1.515-.523 2.306 2.306 0 0 1 1.515.523 4.317 4.317 0 0 0 2.677.875 4.317 4.317 0 0 0 2.677-.875 2.456 2.456 0 0 1 3.029 0 4.534 4.534 0 0 0 5.354 0 2.456 2.456 0 0 1 3.029 0 4.534 4.534 0 0 0 5.354 0 2.3 2.3 0 0 1 1.514-.522 1.048 1.048 0 0 0 0-2.1zm0 0" class="cls-1" transform="translate(-.5 -364.616)"/>
    <path id="Path_164" d="M35.08 462a4.314 4.314 0 0 0-2.677.875 2.455 2.455 0 0 1-3.028 0 4.535 4.535 0 0 0-5.354 0 2.456 2.456 0 0 1-3.029 0 4.534 4.534 0 0 0-5.354 0 2.456 2.456 0 0 1-3.029 0A4.319 4.319 0 0 0 9.931 462a4.319 4.319 0 0 0-2.677.874 2.3 2.3 0 0 1-1.515.523 2.3 2.3 0 0 1-1.515-.523A4.319 4.319 0 0 0 1.548 462a1.048 1.048 0 1 0 0 2.1 2.306 2.306 0 0 1 1.515.523 4.317 4.317 0 0 0 2.677.875 4.317 4.317 0 0 0 2.677-.875 2.306 2.306 0 0 1 1.515-.523 2.306 2.306 0 0 1 1.515.523 4.317 4.317 0 0 0 2.677.875 4.318 4.318 0 0 0 2.677-.875 2.456 2.456 0 0 1 3.029 0 4.534 4.534 0 0 0 5.354 0 2.456 2.456 0 0 1 3.029 0 4.534 4.534 0 0 0 5.354 0 2.3 2.3 0 0 1 1.514-.522 1.048 1.048 0 1 0 0-2.1zm0 0" class="cls-1" transform="translate(-.5 -429.726)"/>
</svg>
