<svg xmlns="http://www.w3.org/2000/svg" width="35.532" height="31.271" viewBox="0 0 35.532 31.271">
    <defs>
        <style>
            .cls-1{fill:#646363;stroke:#646363}
        </style>
    </defs>
    <g id="graph" transform="translate(.5 .56)">
        <path id="Path_148" d="M15.356 57.513H8.579a.493.493 0 0 1-.493-.493v-8.86a.493.493 0 0 1 .493-.493h6.776a.493.493 0 0 1 .493.493v8.86a.493.493 0 0 1-.492.493zm-6.283-.986h5.79v-7.874H9.072z" class="cls-1" transform="translate(-5.085 -27.303)"/>
        <path id="Path_149" d="M29.1 53.593h-6.779a.493.493 0 0 1-.493-.493V40.427a.493.493 0 0 1 .493-.493H29.1a.493.493 0 0 1 .493.493V53.1a.493.493 0 0 1-.493.493zm-6.283-.986H28.6V40.92h-5.79z" class="cls-1" transform="translate(-12.05 -23.383)"/>
        <path id="Path_150" d="M42.84 49.476h-6.777a.493.493 0 0 1-.493-.493V32.3a.493.493 0 0 1 .493-.493h6.777a.493.493 0 0 1 .493.493v16.683a.493.493 0 0 1-.493.493zm-6.283-.986h5.79V32.8h-5.79z" class="cls-1" transform="translate(-19.016 -19.266)"/>
        <path id="Path_151" d="M63.543 49.931a.493.493 0 0 1-.493-.493v-1.445a.493.493 0 0 1 .986 0v1.445a.493.493 0 0 1-.493.493z" class="cls-1" transform="translate(-32.945 -27.218)"/>
        <path id="Path_152" d="M53.061 36.579h-6.776a.493.493 0 0 1-.493-.493v-21.92h-2.929a.493.493 0 0 1-.349-.842l6.81-6.81a.493.493 0 0 1 .7 0l6.815 6.81a.493.493 0 0 1-.349.842h-2.936v4.625a.493.493 0 1 1-.986 0v-5.118a.493.493 0 0 1 .493-.493H55.3l-5.625-5.621-5.621 5.621h2.232a.493.493 0 0 1 .493.493v21.919h5.789v-3.545a.493.493 0 1 1 .986 0v4.039a.493.493 0 0 1-.493.493z" class="cls-1" transform="translate(-22.463 -6.37)"/>
        <path id="Path_153" d="M63.543 39.991a.493.493 0 0 1-.493-.493v-1.455a.493.493 0 1 1 .986 0V39.5a.493.493 0 0 1-.493.491z" class="cls-1" transform="translate(-32.945 -22.175)"/>
        <path id="Path_154" d="M35.9 66.62H2.493a.493.493 0 0 1 0-.986H35.9a.493.493 0 0 1 0 .986z" class="cls-1" transform="translate(-2 -36.41)"/>
    </g>
</svg>
