<svg xmlns="http://www.w3.org/2000/svg" id="megaphone" width="34.64" height="26.386" viewBox="0 0 34.64 26.386">
    <defs>
        <style>
            .cls-1{fill:#646363}
        </style>
    </defs>
    <g id="Group_174" transform="translate(29.566 12.178)">
        <g id="Group_173">
            <path id="Path_143" d="M441.059 241h-3.045a1.015 1.015 0 0 0 0 2.03h3.045a1.015 1.015 0 1 0 0-2.03z" class="cls-1" transform="translate(-437 -241)"/>
        </g>
    </g>
    <g id="Group_176" transform="translate(28.551 16.238)">
        <g id="Group_175">
            <path id="Path_144" d="M425.762 303.328l-2.03-2.03a1.015 1.015 0 0 0-1.435 1.435l2.03 2.03a1.015 1.015 0 1 0 1.435-1.435z" class="cls-1" transform="translate(-422 -301.001)"/>
        </g>
    </g>
    <g id="Group_178" transform="translate(28.551 6.089)">
        <g id="Group_177">
            <path id="Path_145" d="M425.762 151.3a1.015 1.015 0 0 0-1.435 0l-2.03 2.03a1.015 1.015 0 0 0 1.435 1.435l2.03-2.03a1.015 1.015 0 0 0 0-1.435z" class="cls-1" transform="translate(-422 -151.001)"/>
        </g>
    </g>
    <g id="Group_180">
        <g id="Group_179">
            <path id="Path_146" d="M23.477 61a3.049 3.049 0 0 0-3.011 2.59l-.926.926a9.138 9.138 0 0 1-6.348 2.573H7.1a3.049 3.049 0 0 0-2.87 2.03h-.171a4.059 4.059 0 0 0 0 8.119h.175a3.059 3.059 0 0 0 1.855 1.855v5.249a3.045 3.045 0 1 0 6.089 0v-5.075h1.015a9.138 9.138 0 0 1 6.348 2.573l.926.926a3.045 3.045 0 0 0 6.055-.454V64.045A3.048 3.048 0 0 0 23.477 61zM4.059 75.208a2.03 2.03 0 0 1 0-4.059zm6.089 9.134a1.015 1.015 0 0 1-2.03 0v-5.075h2.03zm2.03-7.1H7.1a1.016 1.016 0 0 1-1.015-1.015v-6.093A1.016 1.016 0 0 1 7.1 69.119h5.074zm8.254 2.658a11.093 11.093 0 0 0-6.232-2.616v-8.211a11.092 11.092 0 0 0 6.231-2.616zm4.059 2.412a1.016 1.016 0 0 1-1.015 1.015 1.016 1.016 0 0 1-1.015-1.015V64.045a1.015 1.015 0 0 1 2.03 0z" class="cls-1" transform="translate(0 -61)"/>
        </g>
    </g>
</svg>
