<svg xmlns="http://www.w3.org/2000/svg" width="51.703" height="51.703" viewBox="0 0 51.703 51.703">
    <path fill="none" d="M0 0h51.7v51.7H0z"/>
    <path fill="#073e81" d="M21.234 8.093a4.524 4.524 0 1 1-4.524 4.524 4.523 4.523 0 0 1 4.524-4.524m0 19.388c6.4 0 13.141 3.145 13.141 4.524v2.37H8.093v-2.37c0-1.379 6.743-4.524 13.141-4.524m0-23.481a8.617 8.617 0 1 0 8.617 8.617A8.615 8.615 0 0 0 21.234 4zm0 19.388C15.482 23.388 4 26.275 4 32.006v6.463h34.468v-6.463c0-5.731-11.482-8.618-17.234-8.618z" transform="translate(4.617 4.617)"/>
</svg>
